<?xml version="1.0" standalone="no"?>
<!DOCTYPE svg PUBLIC "-//W3C//DTD SVG 20010904//EN"
 "http://www.w3.org/TR/2001/REC-SVG-20010904/DTD/svg10.dtd">
<svg version="1.0" xmlns="http://www.w3.org/2000/svg"
 width="228.000000pt" height="228.000000pt" viewBox="0 0 228.000000 228.000000"
 preserveAspectRatio="xMidYMid meet">
<metadata>
Created by potrace 1.14, written by Peter Selinger 2001-2017
</metadata>
<g transform="translate(0.000000,228.000000) scale(0.100000,-0.100000)"
fill="#000000" stroke="none">
<path d="M1023 2164 c-3 -125 -51 -264 -94 -272 -23 -4 -52 62 -51 117 1 26 8
69 16 96 9 27 13 51 11 53 -2 3 -18 -1 -35 -8 -39 -16 -76 -64 -99 -127 -19
-52 -25 -174 -12 -236 11 -47 -1 -66 -23 -36 -21 30 -33 77 -40 155 -8 78 -27
125 -66 158 -48 40 -66 33 -45 -17 15 -38 11 -107 -10 -167 -19 -54 -30 -140
-21 -174 3 -14 20 -41 37 -61 42 -47 18 -44 -55 7 -72 51 -132 68 -194 56 -25
-4 -47 -10 -50 -13 -11 -11 10 -36 45 -54 21 -10 65 -44 99 -74 98 -90 121
-157 54 -157 -48 0 -96 25 -154 80 -30 28 -56 47 -59 43 -10 -19 2 -91 23
-131 37 -72 154 -156 258 -187 24 -7 29 -20 10 -27 -29 -10 -77 1 -148 33 -91
41 -183 47 -219 15 -16 -14 -18 -22 -9 -27 7 -4 15 -6 20 -3 18 12 83 -31 158
-104 68 -67 90 -82 131 -92 36 -9 57 -9 80 -1 53 18 29 -11 -37 -44 -33 -16
-72 -38 -86 -48 -43 -29 -99 -157 -69 -157 4 0 39 16 78 35 68 34 174 65 224
65 43 0 55 -23 32 -62 -22 -38 -87 -77 -154 -92 -26 -6 -49 -15 -51 -20 -8
-23 67 -51 133 -51 56 1 78 6 140 37 41 21 92 53 114 72 42 37 65 34 45 -5
-18 -33 -37 -52 -106 -102 -73 -54 -104 -95 -111 -146 -7 -50 8 -58 41 -21 30
34 64 50 161 74 117 29 154 58 186 141 10 27 12 28 19 10 4 -11 4 -33 0 -50
-10 -49 -4 -138 13 -170 21 -41 65 -87 79 -83 6 2 13 33 15 74 6 117 54 264
87 264 48 0 72 -119 42 -211 -10 -28 -15 -53 -12 -56 15 -15 78 30 110 80 38
57 50 168 33 314 -3 33 14 32 34 -2 17 -29 22 -54 34 -159 9 -72 31 -118 70
-145 42 -29 53 -22 37 22 -17 47 -15 70 13 172 37 132 32 180 -23 238 -14 15
-20 27 -13 27 15 0 71 -32 71 -41 0 -3 25 -18 55 -34 47 -23 64 -27 114 -23
33 2 67 10 75 18 15 11 10 17 -40 47 -110 66 -226 203 -191 225 44 28 140 -12
203 -84 37 -42 54 -35 47 20 -15 110 -106 201 -255 257 -49 18 -59 29 -34 38
25 10 72 -1 148 -33 93 -40 154 -48 196 -26 18 9 32 23 32 32 0 8 -4 13 -8 10
-25 -15 -85 19 -158 90 -102 98 -140 118 -211 110 -29 -3 -53 -3 -53 -1 0 3
33 21 74 41 41 19 88 49 105 66 30 30 69 123 57 135 -3 4 -42 -11 -86 -31 -93
-44 -159 -63 -214 -62 -111 3 -35 110 108 151 31 9 56 22 56 29 0 15 -88 46
-129 46 -39 0 -132 -29 -163 -51 -14 -11 -29 -19 -34 -19 -4 0 -26 -16 -50
-35 -39 -32 -64 -44 -64 -30 0 25 43 74 110 125 81 62 109 99 117 156 6 46
-10 49 -49 10 -25 -25 -55 -40 -109 -56 -170 -49 -198 -66 -224 -135 -18 -45
-38 -54 -29 -12 3 12 5 56 6 97 1 79 -9 111 -55 163 -40 45 -52 36 -54 -39z
m162 -525 c70 -4 249 -69 283 -103 12 -11 18 -39 20 -90 4 -66 2 -75 -19 -95
-13 -12 -41 -26 -62 -32 -21 -5 -53 -24 -70 -41 -37 -35 -87 -63 -87 -49 0 5
5 13 10 16 6 3 10 12 10 20 0 11 -26 14 -130 14 -71 0 -132 -4 -135 -9 -3 -5
2 -16 11 -24 14 -15 14 -16 -4 -16 -10 0 -39 17 -63 38 -24 22 -62 45 -84 52
-22 7 -51 22 -64 34 -21 19 -23 27 -18 89 3 38 12 77 19 88 18 27 166 87 253
103 39 7 72 12 75 10 3 -1 28 -3 55 -5z m-142 -457 c88 -39 104 -89 37 -116
-22 -9 -47 -16 -55 -16 -7 0 -17 -9 -20 -20 -6 -19 -10 -17 -49 22 -116 117
-63 196 87 130z m326 13 c23 -14 3 -99 -27 -118 -7 -5 -25 -22 -40 -38 -22
-25 -27 -28 -32 -13 -3 9 -28 24 -55 33 -81 27 -86 61 -16 107 59 39 134 52
170 29z m-314 -205 c7 -23 3 -22 83 -25 58 -2 64 -1 74 21 17 36 35 29 43 -16
8 -48 -2 -64 -51 -80 -70 -24 -131 -17 -174 18 -18 14 -20 23 -14 60 7 44 28
57 39 22z"/>
<path d="M830 1461 c0 -48 57 -73 133 -58 49 10 57 7 70 -28 7 -17 15 -2 21
37 8 50 -11 59 -130 63 -83 2 -94 0 -94 -14z"/>
<path d="M1264 1470 c-17 -4 -35 -10 -41 -13 -8 -5 -10 -40 -4 -79 2 -16 19
-7 24 12 5 18 11 19 80 14 67 -6 76 -5 96 15 11 11 21 29 21 39 0 15 -10 17
-72 18 -40 0 -87 -3 -104 -6z"/>
<path d="M17 179 c-23 -13 -24 -101 -1 -123 19 -20 144 -22 162 -4 16 16 16
110 0 126 -15 15 -136 16 -161 1z m122 -49 c-47 -6 -67 -30 -25 -30 14 0 26
-4 26 -9 0 -12 -27 -18 -62 -13 -24 4 -28 9 -28 38 0 30 3 33 33 36 17 2 47
-1 65 -7 l34 -10 -43 -5z"/>
<path d="M227 128 c0 -35 2 -69 2 -75 1 -7 12 -13 25 -13 17 0 23 5 22 17 -1
14 8 19 37 21 32 3 39 0 44 -17 6 -24 41 -28 49 -6 4 8 2 21 -4 28 -5 7 -6 21
-1 32 22 57 -1 75 -99 75 l-77 0 2 -62z m133 7 c0 -17 0 -17 -50 -19 -26 -1
-36 4 -38 17 -3 14 4 17 42 17 34 0 46 -4 46 -15z"/>
<path d="M447 183 c-2 -5 -3 -34 -2 -67 3 -64 11 -75 60 -77 116 -5 125 1 125
87 0 61 -1 64 -24 64 -23 0 -25 -4 -24 -49 0 -58 -6 -70 -30 -66 -9 2 -27 4
-39 4 -21 1 -23 6 -23 56 0 48 -3 55 -19 55 -11 0 -22 -3 -24 -7z"/>
<path d="M670 114 c0 -72 1 -75 23 -72 12 2 22 10 22 18 0 10 14 14 53 16 62
1 73 9 74 54 2 47 -22 60 -104 60 l-68 0 0 -76z m126 25 c9 -16 -12 -26 -48
-25 -21 1 -32 7 -34 19 -2 14 5 17 36 17 21 0 42 -5 46 -11z"/>
<path d="M898 184 c-10 -3 -19 -9 -19 -12 -15 -87 -1 -131 42 -133 120 -6 149
2 150 39 3 57 0 94 -6 100 -8 8 -144 13 -167 6z m128 -60 c8 -30 -1 -41 -40
-48 -38 -7 -66 9 -66 38 0 31 7 36 56 36 38 0 44 -3 50 -26z"/>
<path d="M1220 113 c0 -82 -10 -75 103 -75 32 0 64 5 72 12 16 14 20 46 6 54
-4 3 -6 17 -3 31 8 43 -11 53 -98 52 l-80 -1 0 -73z m140 27 c0 -5 -20 -10
-45 -10 -25 0 -45 5 -45 10 0 6 20 10 45 10 25 0 45 -4 45 -10z m-5 -55 c0
-11 -59 -19 -82 -11 -8 3 -11 11 -8 16 8 14 90 9 90 -5z"/>
<path d="M1470 115 c-40 -73 -38 -99 7 -70 24 16 113 21 113 6 0 -12 39 -21
46 -10 3 5 -11 40 -32 78 -33 62 -40 68 -66 67 -25 -1 -34 -10 -68 -71z m84 9
c9 -23 8 -24 -19 -24 -23 0 -24 2 -15 20 13 24 26 26 34 4z"/>
<path d="M1674 181 c-6 -7 -5 -137 2 -144 10 -10 35 5 43 27 6 14 18 21 37 22
16 1 39 2 52 3 23 1 31 26 10 33 -7 3 -32 4 -55 3 -30 -1 -43 3 -43 12 0 9 17
13 59 13 53 0 59 2 54 19 -4 16 -14 18 -80 17 -41 -1 -77 -3 -79 -5z"/>
<path d="M1932 181 c-19 -11 -83 -134 -75 -142 5 -5 21 -2 37 6 33 17 97 20
112 5 13 -13 54 -21 54 -11 0 4 -17 39 -38 77 -37 67 -60 84 -90 65z m36 -82
c-6 -4 -17 -5 -24 -2 -11 4 -11 10 -3 26 11 20 12 20 25 2 10 -14 11 -21 2
-26z"/>
<path d="M2092 112 c3 -63 6 -76 21 -78 15 -2 22 7 18 29 0 4 19 7 43 7 35 0
45 -4 49 -19 6 -25 42 -21 43 5 0 10 -4 24 -8 31 -5 6 -5 14 2 18 15 9 12 51
-5 65 -8 7 -49 13 -90 15 l-76 2 3 -75z m126 16 c3 -15 -4 -18 -36 -18 -44 0
-56 8 -41 26 15 19 73 13 77 -8z"/>
</g>
</svg>
